{
    "asset" : {
        "generator" : "Khronos glTF Blender I/O v1.3.48",
        "version" : "2.0"
    },
    "scene" : 0,
    "scenes" : [
        {
            "extras" : {
                "glTF2ExportSettings" : {
                    "export_apply" : 1,
                    "export_extras" : 1,
                    "export_format" : "GLTF_EMBEDDED",
                    "use_selection" : 1
                }
            },
            "name" : "Scene",
            "nodes" : [
                0,
                1
            ]
        }
    ],
    "nodes" : [
        {
            "mesh" : 0,
            "name" : "Cube",
            "scale" : [
                1.275415062904358,
                0.18901300430297852,
                1
            ],
            "translation" : [
                0,
                0.16805845499038696,
                0
            ]
        },
        {
            "mesh" : 1,
            "name" : "Text",
            "rotation" : [
                0.7071068286895752,
                0,
                0,
                0.7071068286895752
            ],
            "scale" : [
                2.0537643432617188,
                3.5085952281951904,
                2.0537643432617188
            ],
            "translation" : [
                0.11672019958496094,
                7.418374061584473,
                0
            ]
        }
    ],
    "materials" : [
        {
            "doubleSided" : true,
            "emissiveFactor" : [
                0,
                0,
                0
            ],
            "name" : "Material.007",
            "pbrMetallicRoughness" : {
                "baseColorTexture" : {
                    "index" : 0,
                    "texCoord" : 0
                },
                "metallicFactor" : 0,
                "roughnessFactor" : 0.5
            }
        },
        {
            "doubleSided" : true,
            "emissiveFactor" : [
                0,
                0,
                0
            ],
            "name" : "Material.001",
            "pbrMetallicRoughness" : {
                "baseColorTexture" : {
                    "index" : 1,
                    "texCoord" : 0
                },
                "metallicFactor" : 0,
                "roughnessFactor" : 0.5
            }
        }
    ],
    "meshes" : [
        {
            "name" : "Cube",
            "primitives" : [
                {
                    "attributes" : {
                        "POSITION" : 0,
                        "NORMAL" : 1,
                        "TEXCOORD_0" : 2
                    },
                    "indices" : 3,
                    "material" : 0
                }
            ]
        },
        {
            "name" : "Text",
            "primitives" : [
                {
                    "attributes" : {
                        "POSITION" : 4,
                        "NORMAL" : 5,
                        "TEXCOORD_0" : 6
                    },
                    "indices" : 7,
                    "material" : 1
                }
            ]
        }
    ],
    "textures" : [
        {
            "source" : 0
        },
        {
            "source" : 0
        }
    ],
    "images" : [
        {
            "bufferView" : 4,
            "mimeType" : "image/png",
            "name" : "concrete7"
        }
    ],
    "accessors" : [
        {
            "bufferView" : 0,
            "componentType" : 5126,
            "count" : 5742,
            "max" : [
                3.79689359664917,
                25.422325134277344,
                1.1041978597640991
            ],
            "min" : [
                -3.79689359664917,
                -1.2434272766113281,
                -1.1052939891815186
            ],
            "type" : "VEC3"
        },
        {
            "bufferView" : 1,
            "componentType" : 5126,
            "count" : 5742,
            "type" : "VEC3"
        },
        {
            "bufferView" : 2,
            "componentType" : 5126,
            "count" : 5742,
            "type" : "VEC2"
        },
        {
            "bufferView" : 3,
            "componentType" : 5123,
            "count" : 8628,
            "type" : "SCALAR"
        },
        {
            "bufferView" : 5,
            "componentType" : 5126,
            "count" : 22155,
            "max" : [
                2.150651454925537,
                0.18000002205371857,
                1.1999998092651367
            ],
            "min" : [
                -2.157180070877075,
                -0.18000002205371857,
                -0.6104946732521057
            ],
            "type" : "VEC3"
        },
        {
            "bufferView" : 6,
            "componentType" : 5126,
            "count" : 22155,
            "type" : "VEC3"
        },
        {
            "bufferView" : 7,
            "componentType" : 5126,
            "count" : 22155,
            "type" : "VEC2"
        },
        {
            "bufferView" : 8,
            "componentType" : 5123,
            "count" : 43176,
            "type" : "SCALAR"
        }
    ],
    "bufferViews" : [
        {
            "buffer" : 0,
            "byteLength" : 68904,
            "byteOffset" : 0
        },
        {
            "buffer" : 0,
            "byteLength" : 68904,
            "byteOffset" : 68904
        },
        {
            "buffer" : 0,
            "byteLength" : 45936,
            "byteOffset" : 137808
        },
        {
            "buffer" : 0,
            "byteLength" : 17256,
            "byteOffset" : 183744
        },
        {
            "buffer" : 0,
            "byteLength" : 1132651,
            "byteOffset" : 201000
        },
        {
            "buffer" : 0,
            "byteLength" : 265860,
            "byteOffset" : 1333652
        },
        {
            "buffer" : 0,
            "byteLength" : 265860,
            "byteOffset" : 1599512
        },
        {
            "buffer" : 0,
            "byteLength" : 177240,
            "byteOffset" : 1865372
        },
        {
            "buffer" : 0,
            "byteLength" : 86352,
            "byteOffset" : 2042612
        }
    ],
    "buffers" : [
        {
            "byteLength" : 2128964,
            "uri" : "data:application/octet-stream;base64,"
        }
    ]
}
